HIERARCHY
ROOT ui
{
	 OFFSET 0 0 0
	 CHANNELS 3 XPosition YPosition Z Position
	 EndSite
	 {
	 OFFSET 0 -1 0
	 }
}
ROOT li
{
	 OFFSET 0 0 0
	 CHANNELS 3 XPosition YPosition Z Position
	 EndSite
	 {
	 OFFSET 0 -1 0
	 }
}
ROOT ul
{
	 OFFSET 0 0 0
	 CHANNELS 3 XPosition YPosition Z Position
	 EndSite
	 {
	 OFFSET 0 -1 0
	 }
}
ROOT ll
{
	 OFFSET 0 0 0
	 CHANNELS 3 XPosition YPosition Z Position
	 EndSite
	 {
	 OFFSET 0 -1 0
	 }
}
ROOT tt
{
	 OFFSET 0 0 0
	 CHANNELS 3 XPosition YPosition Z Position
	 EndSite
	 {
	 OFFSET 0 -1 0
	 }
}
ROOT tb
{
	 OFFSET 0 0 0
	 CHANNELS 3 XPosition YPosition Z Position
	 EndSite
	 {
	 OFFSET 0 -1 0
	 }
}
ROOT td
{
	 OFFSET 0 0 0
	 CHANNELS 3 XPosition YPosition Z Position
	 EndSite
	 {
	 OFFSET 0 -1 0
	 }
}
ROOT v
{
	 OFFSET 0 0 0
	 CHANNELS 3 XPosition YPosition Z Position
	 EndSite
	 {
	 OFFSET 0 -1 0
	 }
}
ROOT bn
{
	 OFFSET 0 0 0
	 CHANNELS 3 XPosition YPosition Z Position
	 EndSite
	 {
	 OFFSET 0 -1 0
	 }
}
MOTION
Frames: 27
Frame Time: 0.002
-0.006509935855865479	3.1852298974990845E-4	0		0.5742050170898437	-2.377360107421875	0		-1.101173828125	0.029983306884765627	0		-0.53128076171875	-2.460535400390625	0		1.714665283203125	-0.6225313720703125	0		3.328781982421875	-0.008493051528930665	0		4.625173828125	0.19691171264648438	0		5.6362021484375	0.22243084716796874	0		-0.3510709533691406	5.8566396484375	0		
0.061213237762451175	-0.004477303028106689	0		0.592861328125	-2.38536669921875	0		-1.1084246826171875	0.02740163803100586	0		-0.5344927978515625	-2.46018408203125	0		1.692478515625	-0.6208817749023438	0		3.307516845703125	-0.011864818572998048	0		4.617875	0.19131210327148437	0		5.630984375	0.21100352478027343	0		-0.35523635864257813	5.85800634765625	0		
-0.020029863357543944	-0.004874276161193848	0		0.5636834106445312	-2.381605712890625	0		-1.0687479248046876	0.021056440353393553	0		-0.41099761962890624	-2.4778857421875	0		1.70617236328125	-0.6258177490234375	0		3.31827783203125	-0.012758857727050781	0		4.6187509765625	0.19757630920410157	0		5.62868701171875	0.21156329345703126	0		-0.35745199584960935	5.8573359375	0		
0.0517326774597168	-0.0077514171600341795	0		0.570332763671875	-2.3904345703125	0		-1.134951171875	0.021410932540893556	0		-0.56402099609375	-2.465130615234375	0		1.6860576171875	-0.620216796875	0		3.328129150390625	-0.009647807121276856	0		4.6204267578125	0.18981578063964843	0		5.6364375	0.21863331604003905	0		-0.3606261291503906	5.85767041015625	0		
0.005735980033874512	0.0012604290246963502	0		0.5614198608398437	-2.376022705078125	0		-1.10108740234375	0.021136106491088866	0		-0.5420350952148437	-2.457214599609375	0		1.6888101806640625	-0.6269999389648437	0		3.311950927734375	-0.012130376815795898	0		4.61242578125	0.19820053100585938	0		5.6300517578125	0.23834637451171875	0		-0.3495775146484375	5.86776318359375	0		
0.04863047409057617	-0.003180967092514038	0		0.558377197265625	-2.3757236328125	0		-1.116958984375	0.0316494312286377	0		-0.5681558227539063	-2.461539794921875	0		1.6829512939453124	-0.6156573486328125	0		3.30388427734375	-0.013759119033813477	0		4.6093916015625	0.19848880004882813	0		5.62788720703125	0.23883590698242188	0		-0.36675296020507814	5.85829248046875	0		
-0.004259008884429932	-0.0010924099683761598	0		0.5534096069335938	-2.378411376953125	0		-1.1070343017578126	0.021725234985351564	0		-0.5170824584960938	-2.462129150390625	0		1.6959544677734375	-0.62063916015625	0		3.328162353515625	-0.00192576801776886	0		4.60238330078125	0.19282345581054688	0		5.6228642578125	0.22556675720214844	0		-0.36964730834960935	5.85857470703125	0		
0.036836727142333985	-0.0095428524017334	0		0.5397481689453125	-2.370976806640625	0		-1.1197698974609376	0.024149078369140625	0		-0.5548379516601563	-2.460302978515625	0		1.6931834716796874	-0.620384521484375	0		3.292332763671875	-0.005142005920410156	0		4.61161328125	0.1928780059814453	0		5.62508740234375	0.21371249389648436	0		-0.3733837890625	5.8598515625	0		
-0.009639392852783204	-5.96101999282837E-4	0		0.5558375854492188	-2.3890458984375	0		-1.1494097900390625	0.02282542610168457	0		-0.5347008666992188	-2.475434326171875	0		1.6774754638671876	-0.6259412231445313	0		3.286641357421875	-0.009864572525024415	0		4.6011005859375	0.19923318481445312	0		5.6190263671875	0.22637353515625	0		-0.3749959716796875	5.8590732421875	0		
0.040944282531738284	7.615460157394409E-4	0		0.5585026245117187	-2.38191455078125	0		-1.1477872314453126	0.026977474212646485	0		-0.5670314331054688	-2.467734619140625	0		1.678096435546875	-0.6217797241210937	0		3.314324951171875	-0.0021438291072845457	0		4.603529296875	0.19135861206054688	0		5.62022998046875	0.24044818115234376	0		-0.3754725036621094	5.85625634765625	0		
-0.010297975540161132	0.0027462449073791502	0		0.5702954711914062	-2.37794970703125	0		-1.1171209716796875	0.02263991355895996	0		-0.5581090698242187	-2.455719970703125	0		1.675830322265625	-0.6215904541015626	0		3.2999970703125	-0.0057636117935180664	0		4.59639453125	0.1996228485107422	0		5.6186142578125	0.24076123046875	0		-0.3796759338378906	5.859482421875	0		
0.0335472412109375	-0.0018248790502548217	0		0.5412103271484375	-2.37734228515625	0		-1.132041748046875	0.033022895812988284	0		-0.552360595703125	-2.4656748046875	0		1.689662109375	-0.6266797485351563	0		3.2798505859375	-0.009306452751159667	0		4.602212890625	0.19365879821777343	0		5.61124951171875	0.21531753540039061	0		-0.38174880981445314	5.85965478515625	0		
0.03164360237121582	-0.001673261046409607	0		0.56321875	-2.382578857421875	0		-1.1310750732421875	0.025129007339477538	0		-0.5641376953125	-2.457361572265625	0		1.668776123046875	-0.6252238159179687	0		3.28281689453125	-0.017240068435668946	0		4.58421484375	0.1880634002685547	0		5.61282470703125	0.2275604705810547	0		-0.3836426086425781	5.85980712890625	0		
-0.02006190872192383	2.670640051364899E-4	0		0.5355390625	-2.379027587890625	0		-1.15983203125	0.02369947052001953	0		-0.59981640625	-2.453679443359375	0		1.6670469970703126	-0.6250941162109375	0		3.299167236328125	-0.01240437126159668	0		4.591453125	0.18604469299316406	0		5.618689453125	0.22230638122558594	0		-0.385362548828125	5.85993994140625	0		
0.02835343360900879	-0.001428015947341919	0		0.547907958984375	-2.383140869140625	0		-1.1243988037109376	0.023215747833251952	0		-0.5776268310546875	-2.46895166015625	0		1.668548583984375	-0.62103173828125	0		3.292718994140625	-0.005214828968048096	0		4.5891181640625	0.20016796875	0		5.6134228515625	0.24168705749511718	0		-0.38691796875	5.8600537109375	0		
-0.01898281478881836	0.0034109079837799073	0		0.53664599609375	-2.37388525390625	0		-1.138642333984375	0.03352113723754883	0		-0.5668108520507813	-2.455051513671875	0		1.68612255859375	-0.6222445678710937	0		3.2961982421875	-0.012201751708984375	0		4.6004833984375	0.1860521240234375	0		5.609474609375	0.22811868286132814	0		-0.3883203430175781	5.8601494140625	0		
0.025682165145874025	-0.001253569006919861	0		0.5572484741210938	-2.3821611328125	0		-1.1399066162109375	0.0336004753112793	0		-0.5701082153320313	-2.456939697265625	0		1.6628123779296875	-0.6248101806640625	0		3.313012451171875	-0.007415903091430664	0		4.5823505859375	0.19440335083007812	0		5.61151806640625	0.2419777069091797	0		-0.3895823364257813	5.860228515625	0		
-0.025430082321166992	6.178920269012451E-4	0		0.5301655883789063	-2.37867822265625	0		-1.1410416259765626	0.03366341781616211	0		-0.5624059448242188	-2.46702099609375	0		1.674772705078125	-0.6189581298828125	0		3.28483251953125	-0.009915671348571777	0		4.5901171875	0.18832183837890626	0		5.604830078125	0.21636448669433594	0		-0.3907176513671875	5.86029150390625	0		
0.01741558837890625	-0.008044625282287598	0		0.5390009155273437	-2.387790283203125	0		-1.1662193603515625	0.024100133895874024	0		-0.6184326782226562	-2.467083984375	0		1.663722900390625	-0.6207471923828125	0		3.269831298828125	-0.00863950252532959	0		4.58506640625	0.18643704223632812	0		5.60998095703125	0.24217587280273437	0		-0.39174029541015626	5.86033935546875	0		
-0.04831436538696289	0.004039185047149658	0		0.5432000122070313	-2.38083740234375	0		-1.1590235595703124	0.03100265884399414	0		-0.55924072265625	-2.461021484375	0		1.6658553466796875	-0.6177598876953125	0		3.300829833984375	-0.014118190765380859	0		4.58824609375	0.192410400390625	0		5.6176435546875	0.20558546447753906	0		-0.3765525207519531	5.86711328125	0		
0.02483565902709961	0.0018649049997329712	0		0.5335269165039063	-2.371669921875	0		-1.1397371826171876	0.037698352813720706	0		-0.59503955078125	-2.459434814453125	0		1.6619842529296875	-0.620685791015625	0		3.289249755859375	0.0010858939886093139	0		4.5945341796875	0.19932559204101563	0		5.60873974609375	0.24230223083496094	0		-0.3934985656738281	5.86039404296875	0		
-0.024881694793701174	0.0036686151027679444	0		0.528712646484375	-2.376591552734375	0		-1.1445413818359376	0.033772369384765626	0		-0.5747276000976562	-2.456764404296875	0		1.661245849609375	-0.6206699829101563	0		3.272220947265625	-0.016633243560791017	0		4.58661669921875	0.18846156311035156	0		5.605267578125	0.22861984252929687	0		-0.39425308227539063	5.86040478515625	0		
0.02038559150695801	-0.0010720449686050415	0		0.52602587890625	-2.378554931640625	0		-1.1811826171875	0.03535290145874023	0		-0.6093291015625	-2.453214599609375	0		1.657521484375	-0.6246134643554687	0		3.27873583984375	-0.005735311985015869	0		4.5859541015625	0.18847596740722655	0		5.6018623046875	0.21665687561035157	0		-0.3949332885742188	5.86040625	0		
-0.033245681762695316	-0.0032213890552520753	0		0.5352981567382813	-2.3877197265625	0		-1.1329566650390626	0.023552005767822265	0		-0.5552401733398438	-2.474109130859375	0		1.659998291015625	-0.62066259765625	0		3.284967529296875	-0.016841176986694337	0		4.58133203125	0.1865489044189453	0		5.6001884765625	0.2426835479736328	0		-0.39554452514648436	5.8603984375	0		
0.022321990966796875	0.0018589669466018677	0		0.539898681640625	-2.380813232421875	0		-1.16236181640625	0.031000730514526367	0		-0.5975200805664063	-2.459448974609375	0		1.65947900390625	-0.620669677734375	0		3.286736083984375	0.0011239290237426759	0		4.58080908203125	0.18655117797851561	0		5.6069482421875	0.24241978454589844	0		-0.39609115600585937	5.8603828125	0		
-0.027112977981567383	0.0036292369365692138	0		0.5285669555664062	-2.37365478515625	0		-1.142708984375	0.0376502799987793	0		-0.5769202270507813	-2.4568125	0		1.6590244140625	-0.6206829223632813	0		3.277166748046875	-0.005735301017761231	0		4.5795771484375	0.2005628204345703	0		5.6066220703125	0.242428466796875	0		-0.3955926513671875	5.85934375	0		
0.018421165466308592	-0.0011403369903564453	0		0.5241038818359375	-2.3786142578125	0		-1.1471685791015624	0.03368209075927735	0		-0.56743310546875	-2.465003173828125	0		1.67761376953125	-0.6220081176757812	0		3.30575146484375	-0.007213510990142822	0		4.583986328125	0.18847666931152343	0		5.60046240234375	0.2167079315185547	0		-0.3970023193359375	5.86033056640625	0		
